<?xml version="1.0" standalone="no"?><!DOCTYPE svg PUBLIC "-//W3C//DTD SVG 1.1//EN" "http://www.w3.org/Graphics/SVG/1.1/DTD/svg11.dtd"><svg t="1709045277215" class="icon" viewBox="0 0 1024 1024" version="1.1" xmlns="http://www.w3.org/2000/svg" p-id="31343" xmlns:xlink="http://www.w3.org/1999/xlink" width="200" height="200"><path d="M659.063949 59.920075l-43.575997 152.503988 43.575997 152.511988h65.359994V59.912075z" fill="#2F5E88" p-id="31344"></path><path d="M299.575977 59.920075h359.487972v305.015976H299.575977z" fill="#367596" p-id="31345"></path><path d="M680.847947 321.360055l-43.575997 43.575996 43.575997 43.575997h65.359995V321.360055z" fill="#88ACB5" p-id="31346"></path><path d="M277.791978 321.360055h403.063969v87.151993H277.783978z" fill="#A7CBCF" p-id="31347"></path><path d="M680.847947 16.336079L637.27995 59.920075l43.575997 43.575997h65.359995V16.344079z" fill="#88ACB5" p-id="31348"></path><path d="M277.791978 16.336079h403.063969v87.151993H277.783978z" fill="#A7CBCF" p-id="31349"></path><path d="M680.847947 168.856067l-43.575997 43.567996L680.847947 256.00006h65.359995V168.856067z" fill="#88ACB5" p-id="31350"></path><path d="M277.791978 168.856067h403.063969V256.00006H277.783978z" fill="#A7CBCF" p-id="31351"></path><path d="M91.239993 608.240032L47.679996 683.120027l43.575997 74.895994a74.895994 74.895994 0 0 0 74.895994-74.895994c0-41.359997-33.519997-74.879994-74.903994-74.879995z" fill="#FFBE35" p-id="31352"></path><path d="M91.239993 608.240032v149.783989a74.895994 74.895994 0 1 1 0-149.791989z" fill="#FFDB8A" p-id="31353"></path><path d="M306.399976 857.872013v149.791988h-74.911994l-34.031997-74.895994 34.031997-74.895994z" fill="#FF0F47" p-id="31354"></path><path d="M156.607988 857.872013h74.879994v149.791988h-74.879994z" fill="#FF6176" p-id="31355"></path><path d="M371.735971 608.240032l-43.575997 74.879995 43.575997 74.895994a74.895994 74.895994 0 1 0 0-149.783989z" fill="#50D1DD" p-id="31356"></path><path d="M371.735971 608.240032v149.783989a74.895994 74.895994 0 1 1 0-149.791989z" fill="#A0F6FA" p-id="31357"></path><path d="M652.239949 608.240032l-43.567997 74.879995 43.575997 74.895994a74.895994 74.895994 0 1 0 0-149.783989z" fill="#FFBE35" p-id="31358"></path><path d="M652.239949 608.240032v149.783989a74.895994 74.895994 0 1 1 0-149.791989z" fill="#FFDB8A" p-id="31359"></path><path d="M932.751927 608.240032l-43.567996 74.879995 43.575996 74.895994a74.895994 74.895994 0 1 0 0-149.783989z" fill="#50D1DD" p-id="31360"></path><path d="M932.751927 608.240032v149.783989a74.895994 74.895994 0 0 1-74.895994-74.903994c0-41.359997 33.519997-74.879994 74.895994-74.879995z" fill="#A0F6FA" p-id="31361"></path><path d="M586.895954 857.872013v149.791988H511.99996l-34.039997-74.895994L511.99996 857.872013z" fill="#FF9269" p-id="31362"></path><path d="M437.095966 857.872013h74.895994v149.791988h-74.895994z" fill="#FFCD9C" p-id="31363"></path><path d="M867.399932 857.872013v149.791988h-74.887994l-34.039997-74.895994 34.039997-74.895994z" fill="#FF0F47" p-id="31364"></path><path d="M717.607944 857.872013h74.895994v149.791988h-74.895994z" fill="#FF6176" p-id="31365"></path><path d="M949.103926 593.376034V508.37604a16.335999 16.335999 0 0 0-16.335999-16.335998H528.343959v-67.183995h217.863983a16.335999 16.335999 0 0 0 16.343998-16.335999V321.360055a16.335999 16.335999 0 0 0-16.343998-16.335999h-5.44v-32.679997h5.44a16.335999 16.335999 0 0 0 16.343998-16.335999V168.856067a16.335999 16.335999 0 0 0-16.343998-16.343999h-5.44v-32.679997h5.44a16.335999 16.335999 0 0 0 16.343998-16.335999V16.344079A16.335999 16.335999 0 0 0 746.207942 0.00008H277.791978a16.343999 16.343999 0 0 0-16.343998 16.335999v87.151993c0 9.023999 7.319999 16.343999 16.343998 16.343999h5.44v32.679997h-5.44a16.343999 16.343999 0 0 0-16.343998 16.335999V256.00006c0 9.023999 7.319999 16.335999 16.343998 16.335999h5.44v32.679997h-5.44a16.343999 16.343999 0 0 0-16.343998 16.343999v87.143993c0 9.023999 7.319999 16.343999 16.343998 16.343999h217.871983v67.175995H91.231993a16.343999 16.343999 0 0 0-16.335999 16.335998v85.015994C32.359997 601.104033 0 638.39203 0 683.120027c0 50.303996 40.927997 91.231993 91.231993 91.231993S182.463986 733.440023 182.463986 683.120027c0-44.719997-32.359997-82.015994-74.887994-89.735993v-68.671995h247.82398v68.671995c-42.527997 7.719999-74.887994 45.007996-74.887994 89.735993 0 50.303996 40.927997 91.231993 91.231993 91.231993S462.975964 733.440023 462.975964 683.120027c0-44.719997-32.359997-82.015994-74.887994-89.735993v-68.671995h247.82398v68.671995c-42.527997 7.719999-74.895994 45.007996-74.895994 89.735993 0 50.303996 40.935997 91.231993 91.239993 91.231993 50.303996 0 91.231993-40.919997 91.231993-91.231993 0-44.719997-32.359997-82.015994-74.895994-89.735993v-68.671995h247.83198v68.671995c-42.527997 7.719999-74.895994 45.007996-74.895994 89.735993 0 50.303996 40.927997 91.231993 91.231993 91.231993 50.311996 0 91.239993-40.927997 91.239993-91.231993 0-44.719997-32.359997-82.015994-74.895994-89.743993zM294.127977 32.680077h435.743966v54.463996H294.127977V32.680077z m21.783998 87.151994H708.079945v32.679997H315.919975v-32.679997z m0 152.503988h277.791979a16.335999 16.335999 0 1 0 0-32.679998H294.127977V185.200066h435.743966v54.463995h-70.807994a16.335999 16.335999 0 1 0 0 32.679998h49.023996v32.679997H315.911975v-32.679997z m-21.783998 65.359995h435.743966v54.479995H294.127977v-54.479995zM149.791988 683.120027c0 32.287997-26.271998 58.559995-58.559995 58.559995-32.287997 0-58.551995-26.271998-58.551996-58.559995 0-32.279997 26.263998-58.551995 58.559996-58.551996 32.279997 0 58.551995 26.263998 58.551995 58.559996z m280.503978 0c0 32.287997-26.263998 58.559995-58.551995 58.559995s-58.559995-26.271998-58.559995-58.559995c0-32.287997 26.271998-58.551995 58.559995-58.551996 32.287997 0 58.559995 26.263998 58.559995 58.559996z m280.511978 0c0 32.287997-26.263998 58.559995-58.559995 58.559995-32.279997 0-58.551995-26.271998-58.551995-58.559995 0-32.279997 26.271998-58.551995 58.559995-58.551996 32.287997 0 58.551995 26.263998 58.551995 58.559996z m221.959983 58.559995c-32.287997 0-58.559995-26.271998-58.559995-58.559995 0-32.287997 26.271998-58.559995 58.559995-58.559996 32.287997 0 58.551995 26.271998 58.551996 58.559996 0 32.287997-26.271998 58.559995-58.559996 58.559995z" fill="#000000" p-id="31366"></path><path d="M306.383976 841.536014h-58.559995V573.728035a16.343999 16.343999 0 0 0-32.679998 0v267.807979h-58.551995a16.343999 16.343999 0 0 0-16.335999 16.335999v149.791988c0 9.015999 7.319999 16.335999 16.343999 16.335999h149.783988a16.343999 16.343999 0 0 0 16.335999-16.343999v-149.783988a16.343999 16.343999 0 0 0-16.335999-16.335999z m-16.343999 149.783989H172.935986v-117.103991h117.103991v117.103991zM586.895954 841.536014h-58.559995V573.728035a16.335999 16.335999 0 1 0-32.671998 0v267.807979h-58.559995a16.343999 16.343999 0 0 0-16.335999 16.335999v149.791988c0 9.015999 7.311999 16.335999 16.335999 16.335999h149.791988a16.335999 16.335999 0 0 0 16.335999-16.343999v-149.783988a16.335999 16.335999 0 0 0-16.335999-16.335999z m-16.343999 149.783989H453.447965v-117.103991h117.10399v117.103991zM867.399932 841.536014h-58.551995V573.728035a16.335999 16.335999 0 1 0-32.679998 0v267.807979h-58.551995a16.335999 16.335999 0 0 0-16.343999 16.335999v149.791988c0 9.015999 7.319999 16.335999 16.343999 16.335999h149.791988a16.335999 16.335999 0 0 0 16.335999-16.343999v-149.783988a16.335999 16.335999 0 0 0-16.343999-16.335999z m-16.335998 149.783989H733.959943v-117.103991h117.103991v117.103991z" fill="#000000" p-id="31367"></path></svg>